# Blender v2.92.0 OBJ File: 'chimeseparated.blend'
# www.blender.org
o ChimeFace_Plane.001
v 0.224929 0.866389 -0.378797
v 0.352371 1.001023 -0.383272
v 0.409441 1.100076 -0.438010
v 0.097873 0.808466 -0.381840
v 0.041521 1.185685 -0.179501
v 0.032925 1.123251 -0.150855
v 0.063618 1.103836 -0.142099
v 0.114785 1.101094 -0.153072
v 0.140887 1.176364 -0.173782
v 0.127385 1.231899 -0.172735
v 0.070508 1.248350 -0.169300
v 0.218259 1.163839 -0.177229
v 0.345793 1.230511 -0.318640
v 0.307555 1.008218 -0.295570
v 0.211066 1.272789 -0.175893
v 0.096270 1.328516 -0.157238
v 0.246590 0.912903 -0.264337
v 0.182389 1.045941 -0.158687
v 0.113695 0.911078 -0.172180
v 0.044226 1.075595 -0.112253
v 0.146142 0.845852 -0.255815
v 0.026849 0.841706 -0.193433
v -0.008931 0.943183 -0.132269
v 0.289759 0.872949 -0.507112
v 0.028172 0.823615 -0.299314
v 0.213608 0.854705 -0.641471
v 0.169729 0.810340 -0.518479
v 0.087717 0.799097 -0.560954
v 0.054515 0.795130 -0.415502
v 0.431044 1.031562 -0.396282
v 0.438089 1.153006 -0.395472
v 0.348485 1.112747 -0.320901
v 0.341841 0.942959 -0.333331
v 0.084405 0.833188 -0.607110
v 0.077850 0.754236 -0.494870
v -0.275622 0.977108 -0.527909
v -0.327665 1.151443 -0.585853
v -0.310533 1.259329 -0.652487
v -0.194936 0.873233 -0.469066
v -0.072238 0.822971 -0.356908
v -0.089290 0.834636 -0.292465
v -0.115344 0.966021 -0.123921
v -0.056920 1.212605 -0.167858
v -0.035528 1.347968 -0.156127
v -0.093087 1.121328 -0.102781
v 0.062571 0.883723 -0.771950
v -0.124706 0.858135 -0.159079
v -0.135424 1.224824 -0.232213
v -0.164237 1.166862 -0.209589
v -0.198836 1.161889 -0.220283
v -0.233382 1.178106 -0.256790
v -0.218070 1.255763 -0.280714
v -0.190134 1.302132 -0.267323
v -0.142748 1.295520 -0.232828
v -0.279972 1.274045 -0.325650
v -0.281975 1.369369 -0.505649
v -0.337042 1.150799 -0.487593
v -0.239660 1.372487 -0.310162
v -0.142869 1.381412 -0.228477
v -0.337556 1.042112 -0.438352
v -0.300487 1.152749 -0.302534
v -0.284325 0.999117 -0.290749
v -0.208827 1.131569 -0.187636
v -0.286453 0.941539 -0.384684
v -0.228755 0.898244 -0.269577
v -0.200402 0.985535 -0.189308
v -0.255770 0.993616 -0.669623
v -0.179810 0.869619 -0.361272
v -0.132133 0.931180 -0.744466
v -0.177634 0.887175 -0.621957
v -0.098682 0.839401 -0.614171
v -0.148098 0.839947 -0.475860
v 0.014802 0.816298 -0.654890
v -0.371503 1.209080 -0.635358
v -0.337624 1.324956 -0.626645
v -0.321198 1.260876 -0.520397
v -0.364798 1.099263 -0.543836
v -0.033989 0.702076 -0.419305
v -0.152383 0.833188 -0.607110
v -0.149887 0.754422 -0.486191
v -0.033989 0.868904 -0.670324
v -0.073929 1.147325 -0.151049
vn 0.2718 -0.8206 -0.5028
vn 0.6695 -0.5549 0.4938
vn 0.5566 -0.8064 0.1997
vn 0.5533 -0.8218 0.1354
vn 0.3316 -0.9431 -0.0230
vn 0.2835 -0.9166 -0.2817
vn 0.3746 -0.8385 0.3957
vn 0.2034 -0.9598 0.1930
vn 0.1403 -0.9318 0.3348
vn -0.0043 -0.9850 0.1727
vn -0.2856 -0.8850 0.3676
vn -0.2449 -0.9632 0.1105
vn 0.1229 -0.8234 0.5540
vn -0.3358 -0.6967 0.6339
vn 0.1246 -0.3121 0.9418
vn -0.2685 -0.1879 0.9448
vn 0.2422 0.1954 0.9503
vn 0.2240 0.3330 0.9159
vn 0.2960 0.5613 0.7728
vn 0.0618 0.6191 0.7829
vn 0.1361 0.4866 0.8629
vn 0.1425 0.0949 0.9852
vn -0.2516 0.1501 0.9561
vn 0.0226 -0.1445 0.9892
vn -0.3035 -0.0592 0.9510
vn 0.0248 -0.1416 0.9896
vn 0.7819 0.0059 0.6233
vn 0.7458 0.0124 0.6660
vn 0.6332 0.1451 -0.7602
vn 0.7033 -0.2516 0.6648
vn 0.4710 -0.1079 0.8755
vn 0.4815 0.0222 0.8761
vn 0.1814 0.1600 0.9703
vn 0.3573 -0.4504 0.8182
vn 0.0557 -0.0830 0.9950
vn 0.3505 -0.0284 0.9361
vn 0.0617 0.1083 0.9922
vn -0.0526 -0.8767 -0.4780
vn -0.3694 -0.9116 -0.1802
vn -0.3337 -0.9395 -0.0774
vn 0.5247 0.8509 -0.0224
vn 0.8384 -0.5283 -0.1340
vn -0.1171 -0.9644 0.2368
vn 0.1111 0.5317 0.8396
vn -0.0927 0.7858 0.6115
vn 0.8979 -0.0812 0.4327
vn 0.1327 -0.4211 0.8972
vn -0.2477 -0.7138 -0.6550
vn -0.8215 -0.5294 -0.2116
vn -0.9711 -0.2386 0.0012
vn -0.7943 -0.5479 -0.2626
vn -0.5981 -0.7447 -0.2962
vn -0.4223 -0.7662 -0.4843
vn -0.6165 -0.7855 -0.0541
vn -0.8009 -0.5976 0.0373
vn -0.8503 -0.4961 0.1755
vn -0.4652 -0.8846 0.0327
vn -0.6934 -0.6546 0.3010
vn -0.7089 -0.1563 0.6877
vn -0.6160 0.3609 0.7002
vn -0.4246 0.7037 0.5696
vn -0.3750 0.5839 0.7200
vn -0.5970 0.2230 0.7706
vn -0.5940 -0.0303 0.8039
vn -0.5969 -0.0264 0.8018
vn -0.9392 0.3242 0.1127
vn -0.0373 0.2604 -0.9648
vn -0.9313 0.3214 0.1711
vn -0.8658 0.1415 0.4799
vn -0.9853 0.0590 0.1603
vn -0.8314 0.2619 0.4901
vn -0.5936 0.3036 0.7453
vn -0.8694 -0.2171 0.4439
vn -0.5993 0.0374 0.7996
vn -0.7835 0.1834 0.5936
vn -0.5291 0.2217 0.8191
vn -0.9493 0.3125 -0.0343
vn -0.1060 0.9727 -0.2063
vn -0.7689 -0.2169 -0.6014
vn -0.3569 -0.9208 0.1572
vn -0.3892 0.9199 0.0466
vn -0.8935 -0.1786 0.4120
s 1
f 2//1 17//2 1//3
f 2//1 1//3 24//4
f 27//5 26//6 24//4
f 1//3 21//7 4//8
f 27//5 4//8 29//9
f 24//4 1//3 27//5
f 25//10 40//11 4//8
f 40//11 25//10 41//12
f 25//10 22//13 41//12
f 41//12 22//13 47//14
f 22//13 23//15 47//14
f 47//14 23//15 42//16
f 23//15 20//17 42//16
f 42//16 20//17 45//18
f 20//17 7//19 45//18
f 45//18 7//19 82//20
f 6//21 82//20 7//19
f 6//21 5//22 43//23
f 5//22 11//24 43//23
f 43//23 11//24 44//25
f 11//24 16//26 44//25
f 13//27 32//28 3//29
f 17//2 14//30 18//31
f 14//30 12//32 18//31
f 12//32 8//33 18//31
f 8//33 7//19 18//31
f 18//31 7//19 20//17
f 20//17 19//34 18//31
f 18//31 19//34 17//2
f 17//2 21//7 1//3
f 21//7 19//34 22//13
f 19//34 23//15 22//13
f 23//15 19//34 20//17
f 22//13 25//10 21//7
f 21//7 25//10 4//8
f 11//24 10//35 16//26
f 16//26 10//35 15//36
f 15//36 10//35 12//32
f 10//35 9//37 12//32
f 9//37 8//33 12//32
f 15//36 32//28 13//27
f 15//36 12//32 32//28
f 19//34 21//7 17//2
f 1//3 4//8 27//5
f 46//38 26//6 28//39
f 27//5 28//39 26//6
f 4//8 40//11 29//9
f 28//39 27//5 29//9
f 46//38 28//39 73//40
f 31//41 30//42 3//29
f 32//28 33//43 31//41
f 32//28 14//30 33//43
f 14//30 17//2 2//1
f 33//43 14//30 2//1
f 31//41 33//43 30//42
f 2//1 30//42 33//43
f 3//29 30//42 2//1
f 32//28 31//41 3//29
f 28//39 81//44 73//40
f 29//9 34//45 28//39
f 40//11 35//46 29//9
f 28//39 34//45 81//44
f 29//9 35//46 34//45
f 40//11 78//47 35//46
f 32//28 12//32 14//30
f 6//21 43//23 82//20
f 37//48 36//49 60//50
f 37//48 67//51 36//49
f 70//52 67//51 69//53
f 36//49 39//54 64//55
f 70//52 72//56 39//54
f 67//51 70//52 36//49
f 68//57 39//54 40//11
f 40//11 41//12 68//57
f 68//57 41//12 65//58
f 41//12 47//14 65//58
f 65//58 47//14 66//59
f 47//14 42//16 66//59
f 66//59 42//16 63//60
f 42//16 45//18 63//60
f 63//60 45//18 50//61
f 45//18 82//20 50//61
f 49//62 50//61 82//20
f 49//62 43//23 48//63
f 48//63 43//23 54//64
f 43//23 44//25 54//64
f 54//64 44//25 59//65
f 56//66 38//67 76//68
f 60//50 61//69 57//70
f 57//70 61//69 55//71
f 55//71 61//69 51//72
f 51//72 61//69 50//61
f 61//69 63//60 50//61
f 63//60 61//69 62//73
f 61//69 60//50 62//73
f 60//50 36//49 64//55
f 64//55 65//58 62//73
f 62//73 65//58 66//59
f 66//59 63//60 62//73
f 65//58 64//55 68//57
f 64//55 39//54 68//57
f 54//64 59//65 53//74
f 59//65 58//75 53//74
f 58//75 55//71 53//74
f 53//74 55//71 52//76
f 52//76 55//71 51//72
f 58//75 56//66 76//68
f 58//75 76//68 55//71
f 62//73 60//50 64//55
f 36//49 70//52 39//54
f 46//38 71//77 69//53
f 70//52 69//53 71//77
f 39//54 72//56 40//11
f 71//77 72//56 70//52
f 46//38 73//40 71//77
f 75//78 38//67 74//79
f 76//68 75//78 77//80
f 76//68 77//80 57//70
f 57//70 37//48 60//50
f 77//80 37//48 57//70
f 75//78 74//79 77//80
f 37//48 77//80 74//79
f 38//67 37//48 74//79
f 76//68 38//67 75//78
f 71//77 73//40 81//44
f 72//56 71//77 79//81
f 40//11 72//56 80//82
f 71//77 81//44 79//81
f 72//56 79//81 80//82
f 40//11 80//82 78//47
f 76//68 57//70 55//71
f 49//62 82//20 43//23
f 45//18 42//16 82//20
