# Blender v2.92.0 OBJ File: 'chimeseparated.blend'
# www.blender.org
o IslandRocks_Cone
v 2.012879 0.856624 -0.650443
v 0.655312 -0.127880 2.016960
v -1.631730 -0.094208 -1.110018
v -1.266438 -0.085793 -1.834479
v 1.295091 0.680273 -0.420540
v 0.319056 0.059244 -0.015495
v 1.896928 -0.134488 -0.841634
v 0.378633 -1.718533 -0.235592
v 1.912892 -0.191664 -0.601248
v 1.863005 0.352640 -0.342604
v 0.454463 -0.046308 1.407691
v 0.253925 0.042999 0.790498
v 1.054953 0.249488 1.831047
v 0.894275 0.175621 2.006798
v 0.131569 -1.709558 0.707188
v 0.394542 -0.650912 1.223271
v 0.441860 -0.112786 2.094497
v -1.253668 0.008746 -0.917250
v -1.013317 -1.414554 -0.581821
v -1.168432 -0.900843 -0.963591
v -0.954889 0.060048 -1.309423
v -1.385917 -0.786038 -1.297326
v -1.496847 -0.386476 -1.677804
v -0.567296 -1.575053 -0.367354
v -0.695763 -1.010829 -1.292406
v -1.027285 -0.147313 -1.764484
v -1.150689 -0.731030 -1.468252
v -1.064339 -0.238875 -1.208166
v 0.670016 -0.801274 1.339281
v 0.641962 -0.066150 1.285860
v 1.197280 -1.206840 -0.216581
v 1.460101 0.400455 -0.208611
v 1.160996 -0.730255 -0.599039
v 1.144462 -0.232300 -0.592968
v -1.512962 0.895427 -1.115878
v -1.231265 0.935241 -1.719713
v -1.116210 1.190810 -0.814797
v -0.820295 1.393883 -1.211337
v -1.545240 1.224694 -1.374004
v -1.380030 1.260058 -1.628032
v -1.065925 1.731694 -0.905365
v -1.313325 -0.176276 -1.868424
v -1.536456 0.177214 -0.910596
v -1.096694 -0.017100 -1.418447
v -1.614120 -0.134009 -1.297386
v -1.496719 -0.774399 -1.488579
v -1.452830 0.556067 -1.328094
v -1.366420 0.604171 -1.589983
v -0.963382 -0.007914 -1.121635
v -1.184289 0.433822 -0.884581
v -1.103895 -0.114040 -0.954386
v -1.525874 0.463804 -1.185149
v -1.335315 1.205458 -1.656316
v -1.371005 0.941673 -0.992492
v -0.904243 1.188726 -1.409453
v -1.483361 1.142888 -1.109704
v -1.467592 1.495241 -1.453828
v -1.112242 1.586024 -1.428314
v -1.294689 1.960565 -1.209913
v -0.965342 1.826132 -1.129427
v -1.208105 2.371207 -1.284177
v -1.100029 1.379627 -0.946064
v -1.342178 1.457277 -1.075161
v -1.028882 0.630634 -1.026529
v -1.108778 0.460047 -1.694718
v -0.915350 0.672158 -1.185661
v -0.991133 0.649296 -1.380215
v -1.608229 0.539216 -1.329040
v -1.339626 0.488022 -1.070617
v -1.357455 0.269122 -1.550271
v -1.266475 0.388800 -1.042220
v -1.356014 0.665145 -1.721512
v -0.951065 0.695152 -1.231619
v -0.812922 1.595102 1.920742
v -0.522151 1.916190 1.899989
v -0.817301 1.887006 1.943034
v -0.878622 1.871304 1.786789
v -0.803972 1.816844 1.628511
v -0.572864 1.840034 1.696785
v -0.594781 2.179539 1.952263
v -0.787858 2.141096 1.871253
v -0.789988 2.229293 1.734931
v -0.667505 2.033142 1.624868
v -0.468397 2.153159 1.772554
v -0.632068 2.447475 1.874182
vn 0.9389 -0.0738 0.3363
vn 0.1276 -0.8469 0.5162
vn -0.8687 -0.4947 0.0234
vn 0.1503 -0.4292 -0.8906
vn 0.3149 0.9074 -0.2783
vn -0.1048 -0.6163 -0.7805
vn 0.1311 -0.9820 -0.1357
vn 0.0283 -0.4985 -0.8664
vn -0.3308 -0.8254 -0.4575
vn -0.0104 -0.9476 -0.3192
vn -0.9036 -0.3953 -0.1648
vn 0.0093 -0.7912 -0.6115
vn 0.9159 -0.0246 0.4007
vn -0.2578 0.1255 -0.9580
vn 0.8938 -0.1079 -0.4352
vn -0.9507 -0.0615 -0.3041
vn -0.6128 -0.1751 0.7706
vn 0.1055 0.9896 0.0977
vn 0.7797 -0.6091 0.1452
vn 0.7364 -0.4887 0.4678
vn -0.5305 -0.3919 0.7517
vn -0.4975 -0.2772 0.8220
vn -0.7384 0.5922 0.3227
vn 0.1622 0.9827 0.0895
vn -0.0871 0.9533 -0.2892
vn -0.5101 0.8534 -0.1077
vn 0.7083 -0.2490 0.6606
vn 0.3550 -0.5395 -0.7635
vn -0.0393 0.5885 0.8076
vn 0.3023 0.6824 0.6656
vn 0.1585 0.4799 0.8629
vn 0.9911 -0.0987 -0.0893
vn 0.5668 -0.7922 -0.2261
vn 0.4177 -0.5860 -0.6943
vn -0.3456 0.2166 -0.9130
vn -0.4983 0.2397 -0.8332
vn -0.3321 0.2278 -0.9153
vn 0.6937 0.3329 -0.6387
vn 0.6965 0.3522 -0.6252
vn -0.6639 0.2664 0.6988
vn -0.7969 0.0074 0.6041
vn -0.6624 0.1546 0.7331
vn -0.9606 0.1052 0.2574
vn 0.9251 -0.1675 -0.3407
vn 0.8716 0.2011 -0.4471
vn 0.9211 -0.1773 -0.3465
vn 0.6272 -0.0548 -0.7770
vn -0.8779 -0.0502 0.4762
vn -0.9775 0.1682 -0.1276
vn 0.0112 -0.0471 -0.9988
vn -0.8778 0.3594 0.3167
vn -0.5589 0.1616 0.8133
vn -0.6661 0.0611 0.7434
vn -0.8758 0.2002 0.4392
vn -0.3832 0.2725 0.8826
vn -0.2379 0.5681 0.7878
vn -0.6000 0.3198 -0.7333
vn -0.9468 0.2387 0.2158
vn -0.9485 0.3011 0.0979
vn 0.4045 0.2127 -0.8895
vn 0.8058 0.2007 -0.5572
vn 0.7168 0.4664 0.5183
vn 0.4725 0.3697 -0.8001
vn 0.4914 0.2172 -0.8434
vn 0.0502 0.4915 -0.8694
vn -0.7662 0.0097 0.6426
vn -0.0202 -0.0733 0.9971
vn -0.4678 0.6204 0.6295
vn -0.9637 -0.1484 -0.2220
vn -0.8657 -0.0317 0.4996
vn -0.9447 0.1435 0.2948
vn -0.0423 -0.1107 0.9930
vn 0.1479 -0.2080 0.9669
vn 0.8480 0.1876 -0.4957
vn -0.9955 -0.0259 -0.0908
vn -0.7921 0.1566 -0.5899
vn 0.2514 0.1788 -0.9512
vn -0.7531 0.1222 0.6464
vn -0.8039 -0.0675 0.5909
vn 0.9298 0.0409 0.3657
vn 0.1071 -0.4359 -0.8936
vn 0.6454 -0.0485 -0.7623
vn -0.1994 0.9033 -0.3799
vn -0.8437 -0.2953 0.4483
vn 0.9357 -0.0073 0.3527
vn 0.0820 -0.0313 -0.9961
vn 0.9960 -0.0891 -0.0054
vn -0.9144 -0.0423 -0.4025
vn -0.5084 -0.1216 0.8525
vn 0.0133 -0.0667 -0.9977
vn 0.9548 -0.1352 -0.2646
vn 0.7405 -0.1547 -0.6541
vn 0.9520 -0.1350 -0.2748
vn 0.9312 0.0135 -0.3643
vn -0.9626 0.1090 0.2481
vn -0.8603 0.0315 0.5089
vn -0.0758 -0.0266 -0.9968
vn -0.4366 -0.1819 0.8811
vn -0.4998 0.6252 0.5995
vn -0.9620 0.2065 0.1785
vn -0.7041 -0.0074 -0.7100
vn -0.8696 0.0873 -0.4860
vn -0.7934 0.0507 0.6066
vn 0.0392 -0.1030 0.9939
vn 0.9516 0.3072 -0.0028
vn 0.1602 -0.1016 0.9818
vn -0.4173 0.1246 -0.9002
vn -0.9949 -0.0340 -0.0945
vn 0.4588 0.0937 -0.8836
vn 0.2925 -0.0824 0.9527
vn 0.9991 -0.0111 0.0412
vn -0.3799 -0.1743 0.9084
vn 0.1510 -0.0730 0.9858
vn 0.7418 -0.6675 0.0650
vn -0.9286 -0.0421 0.3687
vn -0.8868 -0.3546 -0.2962
vn 0.2493 -0.7751 -0.5805
vn 0.9496 -0.2853 -0.1300
vn 0.1572 -0.1504 0.9760
vn -0.9183 0.2025 0.3401
vn -0.8735 0.1492 -0.4633
vn 0.2961 -0.2025 -0.9334
vn 0.8204 0.1151 0.5601
vn -0.4189 0.2915 0.8600
vn -0.9476 0.2612 0.1838
vn -0.4059 0.2412 -0.8815
vn 0.5979 -0.0055 -0.8016
vn 0.8064 0.2661 0.5281
vn -0.4128 0.2014 0.8883
vn -0.8536 0.4312 0.2923
vn 0.0491 0.5119 -0.8577
vn 0.3283 0.4662 -0.8215
s off
f 1//1 10//1 9//1
f 2//2 17//2 16//2
f 3//3 45//3 20//3
f 4//4 26//4 25//4
f 44//5 26//5 4//5
f 23//6 42//6 25//6
f 22//7 46//7 27//7
f 23//8 25//8 27//8
f 27//9 25//9 24//9
f 22//10 27//10 20//10
f 20//11 27//11 19//11
f 27//12 24//12 19//12
f 73//13 60//13 41//13
f 72//14 53//14 36//14
f 50//15 71//15 62//15
f 48//16 70//16 57//16
f 69//17 54//17 35//17
f 11//18 17//18 2//18
f 14//19 2//19 16//19
f 13//20 14//20 29//20
f 14//21 16//21 29//21
f 29//22 16//22 15//22
f 11//23 2//23 14//23
f 12//24 11//24 30//24
f 11//25 14//25 30//25
f 30//26 14//26 13//26
f 10//27 31//27 9//27
f 9//28 31//28 8//28
f 6//29 32//29 5//29
f 32//30 10//30 5//30
f 5//31 10//31 1//31
f 7//32 1//32 9//32
f 7//33 9//33 33//33
f 33//34 9//34 8//34
f 5//35 1//35 7//35
f 6//36 5//36 34//36
f 5//37 7//37 34//37
f 38//38 55//38 58//38
f 38//39 58//39 60//39
f 41//40 61//40 59//40
f 41//41 59//41 62//41
f 37//42 63//42 54//42
f 68//43 56//43 39//43
f 66//44 67//44 55//44
f 67//45 65//45 36//45
f 44//46 4//46 65//46
f 21//47 44//47 67//47
f 68//48 52//48 35//48
f 45//49 3//49 52//49
f 45//50 68//50 47//50
f 63//51 39//51 56//51
f 63//52 56//52 54//52
f 54//53 56//53 35//53
f 59//54 39//54 63//54
f 59//55 63//55 62//55
f 62//56 63//56 37//56
f 61//57 40//57 57//57
f 61//58 57//58 59//58
f 59//59 57//59 39//59
f 58//60 40//60 61//60
f 58//61 61//61 60//61
f 60//62 61//62 41//62
f 55//63 36//63 53//63
f 55//64 53//64 58//64
f 58//65 53//65 40//65
f 69//66 50//66 37//66
f 43//67 18//67 50//67
f 43//68 69//68 52//68
f 70//69 47//69 39//69
f 46//70 22//70 47//70
f 23//71 46//71 70//71
f 64//72 41//72 62//72
f 28//73 64//73 71//73
f 51//74 71//74 50//74
f 72//75 48//75 40//75
f 42//76 23//76 48//76
f 42//77 72//77 65//77
f 73//78 66//78 38//78
f 21//79 66//79 73//79
f 49//80 73//80 64//80
f 27//81 46//81 23//81
f 25//82 42//82 4//82
f 21//83 26//83 44//83
f 20//84 45//84 22//84
f 73//85 41//85 64//85
f 72//86 36//86 65//86
f 50//87 62//87 37//87
f 48//88 57//88 40//88
f 69//89 35//89 52//89
f 68//90 39//90 47//90
f 66//91 55//91 38//91
f 67//92 36//92 55//92
f 44//93 65//93 67//93
f 21//94 67//94 66//94
f 68//95 35//95 56//95
f 45//96 52//96 68//96
f 45//97 47//97 22//97
f 69//98 37//98 54//98
f 43//99 50//99 69//99
f 43//100 52//100 3//100
f 70//101 39//101 57//101
f 46//102 47//102 70//102
f 23//103 70//103 48//103
f 64//104 62//104 71//104
f 28//105 71//105 51//105
f 51//106 50//106 18//106
f 72//107 40//107 53//107
f 42//108 48//108 72//108
f 42//109 65//109 4//109
f 73//110 38//110 60//110
f 21//111 73//111 49//111
f 49//112 64//112 28//112
f 74//113 75//113 76//113
f 75//114 74//114 79//114
f 74//115 76//115 77//115
f 74//116 77//116 78//116
f 74//117 78//117 79//117
f 75//118 79//118 84//118
f 76//119 75//119 80//119
f 77//120 76//120 81//120
f 78//121 77//121 82//121
f 79//122 78//122 83//122
f 75//123 84//123 80//123
f 76//124 80//124 81//124
f 77//125 81//125 82//125
f 78//126 82//126 83//126
f 79//127 83//127 84//127
f 80//128 84//128 85//128
f 81//129 80//129 85//129
f 82//130 81//130 85//130
f 83//131 82//131 85//131
f 84//132 83//132 85//132
