# Blender v2.92.0 OBJ File: 'chimeseparated.blend'
# www.blender.org
o IslandCrystals_Cone.001
v -0.241701 -0.000326 0.130037
v 0.000563 0.414393 -2.078766
v 0.913466 1.081265 -2.310174
v 1.565443 0.498390 -2.093009
v 1.700542 -0.305173 -1.250374
v 2.018825 -0.162946 -0.017345
v 2.024386 0.258664 0.723508
v 1.684260 -0.142857 1.214967
v 1.221513 0.068028 1.666843
v 0.036153 -0.634783 2.209259
v -0.613851 -0.148112 2.028567
v -1.312374 -0.241522 1.770232
v -1.722086 -0.125678 1.252570
v -1.835491 -0.086921 0.715910
v -2.100748 -0.378257 0.007371
v -2.116259 -0.090175 -0.700548
v -1.631730 -0.094208 -1.110018
v -0.665414 -0.116775 -2.046157
v -0.064023 -2.445000 0.690117
v 0.450475 -0.064420 -1.393225
v 0.221763 0.060703 -0.561442
v 0.015825 -0.005183 -0.739511
v -0.002567 -0.037790 -1.483960
v 0.260518 0.432541 -1.889362
v 0.493186 0.690372 -1.881447
v 0.103724 -1.189151 -1.400122
v -0.126841 -1.444430 -0.698304
v 0.139835 -1.478291 -0.711087
v 0.406356 -0.990724 -1.343491
v 0.865587 -0.049102 -1.193818
v 0.467698 0.000958 -0.646172
v 1.014150 0.710371 -2.221028
v 1.063462 0.239226 -1.845558
v 0.296203 -1.915872 -0.389035
v 0.729685 -1.140831 -0.899988
v 1.087235 -0.231390 -0.790695
v 0.336016 0.043247 -0.204302
v 1.588343 0.215240 -1.497005
v 1.655033 0.056715 -1.300304
v 0.496815 -1.311891 -0.361730
v 1.097547 -0.704184 -0.798186
v 0.319056 0.059244 -0.015495
v 1.754743 -0.150556 -1.019414
v 1.896928 -0.134488 -0.841634
v 0.378633 -1.718533 -0.235592
v 1.284810 0.172758 -0.008305
v 0.688974 0.076811 0.190416
v 1.863005 0.352640 -0.342604
v 2.063650 0.026877 -0.119656
v 0.455925 -1.650169 0.045552
v 1.399617 -0.734380 0.001095
v 1.353334 -0.037680 0.496690
v 0.730322 0.056650 0.368349
v 2.111665 -0.117756 0.223090
v 1.924003 0.139957 0.499306
v 0.485014 -1.696991 0.276668
v 1.394296 -0.781822 0.454963
v 1.115715 -0.182000 0.813575
v 0.504235 -0.082778 0.513889
v 1.963042 0.041511 0.883289
v 1.803480 -0.131440 1.046435
v 0.572067 -1.291276 0.787677
v 1.188554 -0.807973 0.945527
v 0.757185 -0.307865 1.046800
v 0.440210 -0.064657 0.610527
v 1.604367 -0.104426 1.450378
v 1.456607 0.244346 1.617921
v 0.164196 -1.596924 0.533409
v 0.929368 -0.428099 1.283799
v 0.454463 -0.046308 1.407691
v 0.253925 0.042999 0.790498
v 1.054953 0.249488 1.831047
v 0.131569 -1.709558 0.707188
v 0.394542 -0.650912 1.223271
v 0.093858 -0.423188 1.385892
v -0.002567 -0.104738 0.725827
v 0.441860 -0.112786 2.094497
v 0.215838 -0.320743 2.092659
v -0.002567 -1.385006 0.611380
v 0.104455 -0.718566 1.488626
v -0.442663 -0.123204 1.355568
v -0.360163 0.039285 0.466662
v -0.228546 -0.426439 2.140470
v -0.423987 -0.399330 1.949218
v -0.169801 -1.548728 0.652077
v -0.404733 -0.586980 1.385286
v -0.920226 0.197681 1.144452
v -0.713802 0.086506 0.828967
v -0.864069 -0.024678 1.892105
v -1.004512 -0.166845 1.767664
v -0.353729 -1.386777 0.549331
v -0.890821 -0.578512 1.164453
v -1.344587 0.314624 0.999331
v -0.846379 0.047353 0.577080
v -1.412127 -0.124059 1.568304
v -1.576904 0.111824 1.420046
v -0.454061 -1.503927 0.466263
v -1.355318 -0.730518 0.993682
v -1.330687 0.083733 0.413720
v -0.692259 0.151702 0.230362
v -1.862123 -0.110453 1.073696
v -1.939738 -0.219144 0.881958
v -0.581184 -1.659813 0.304026
v -1.303001 -0.821794 0.440501
v -1.523288 0.012253 0.001093
v -0.865914 0.089746 0.001094
v -2.097442 -0.112264 0.445754
v -2.081626 -0.130201 0.217517
v -0.980919 -1.580454 0.125636
v -1.239038 -1.178383 0.086341
v -1.328353 -0.165526 -0.429681
v -0.610322 -0.224982 -0.196378
v -2.084134 -0.011805 -0.215730
v -2.079531 -0.118602 -0.440732
v -0.706911 -1.767544 -0.031705
v -1.440068 -0.802803 -0.552002
v -1.253668 0.008746 -0.917250
v -0.708436 -0.076741 -0.391564
v -2.001392 -0.095528 -0.892246
v -1.795456 -0.136601 -1.037544
v -1.013317 -1.414554 -0.581821
v -1.168432 -0.900843 -0.963591
v -0.954889 0.060048 -1.309423
v -0.508625 0.008851 -0.658357
v -0.567296 -1.575053 -0.367354
v -0.695763 -1.010829 -1.292406
v -0.484730 0.067812 -1.482859
v -0.292120 0.087840 -0.753673
v -1.027285 -0.147313 -1.764484
v -0.864112 -0.120001 -1.935337
v -0.466021 -1.694898 -0.391752
v -0.493249 0.007091 -2.078600
v -0.227942 0.244536 -2.134483
v -0.114303 -0.980310 -1.256467
v -0.217632 -0.306249 -1.258492
v -0.597422 0.010712 -1.345424
v -1.064339 -0.238875 -1.208166
v -1.075607 -1.169411 -0.611372
v -1.301900 -0.131545 -0.649835
v -1.055318 -1.088935 -0.131270
v -1.250997 -0.270328 -0.190128
v -1.473513 -0.773351 0.232090
v -1.506818 0.065447 0.210407
v -1.104142 -0.687057 0.560324
v -1.262453 0.038531 0.582792
v -0.999046 -0.796382 0.969100
v -1.121504 0.517187 1.109731
v -0.542578 -0.785495 1.088081
v -0.627185 -0.148002 1.238022
v -0.191970 -0.671093 1.227407
v -0.207509 -0.196824 1.355810
v 0.224115 -0.722147 1.385097
v 0.203020 -0.214950 1.300257
v 0.670016 -0.801274 1.339281
v 0.641962 -0.066150 1.285860
v 0.953839 -0.690914 0.944992
v 0.942192 -0.193511 0.949238
v 1.218164 -0.713764 0.617831
v 1.209129 -0.181942 0.616870
v 1.410362 -0.761439 0.227679
v 1.371482 -0.116175 0.226370
v 1.197280 -1.206840 -0.216581
v 1.460101 0.400455 -0.208611
v 1.160996 -0.730255 -0.599039
v 1.144462 -0.232300 -0.592968
v 0.848657 -0.647470 -0.865122
v 0.937147 -0.218332 -0.946460
v 0.520470 -1.074977 -1.160462
v 0.686344 -0.019225 -1.335331
v 0.176608 -0.324754 -1.157361
v -1.536456 0.177214 -0.910596
v -0.963382 -0.007914 -1.121635
v -1.103895 -0.114040 -0.954386
vn -0.2426 0.9670 -0.0772
vn 0.5772 -0.2865 -0.7647
vn 0.3201 0.9006 0.2940
vn -0.3812 -0.3126 -0.8700
vn -0.1546 0.9781 -0.1397
vn 0.7333 -0.6028 -0.3145
vn -0.1296 0.9870 -0.0953
vn 0.6717 -0.6788 0.2968
vn -0.0870 0.9936 0.0715
vn -0.0904 0.9870 0.1328
vn 0.6712 -0.7312 -0.1217
vn -0.1772 0.8335 0.5233
vn 0.8519 -0.4444 -0.2769
vn 0.1520 0.9848 -0.0839
vn 0.6840 -0.6466 0.3377
vn 0.2754 0.9234 -0.2673
vn 0.0679 -0.6344 0.7700
vn -0.5323 0.7714 0.3488
vn 0.3624 0.9319 0.0179
vn -0.6233 -0.7814 0.0318
vn 0.0202 0.9937 -0.1098
vn -0.5578 -0.7588 0.3364
vn -0.0257 0.9898 -0.1403
vn -0.6890 -0.7204 -0.0787
vn 0.3725 0.8299 0.4154
vn -0.6561 -0.5960 0.4629
vn 0.2115 0.8913 -0.4010
vn -0.5401 -0.6090 0.5808
vn 0.2426 0.6493 -0.7208
vn -0.3648 -0.4721 -0.8026
vn -0.7296 0.3158 0.6066
vn -0.6371 -0.6801 -0.3627
vn -0.2720 0.9567 0.1032
vn -0.2969 0.9484 0.1116
vn 0.2849 0.9553 0.0790
vn 0.3094 -0.6191 -0.7218
vn 0.4448 -0.3246 -0.8347
vn 0.3126 -0.5341 -0.7855
vn -0.7468 -0.4318 -0.5057
vn -0.7561 -0.4947 -0.4284
vn 0.0808 -0.6193 -0.7810
vn 0.0792 -0.7840 -0.6157
vn -0.0103 -0.7688 -0.6395
vn 0.0676 -0.8080 -0.5853
vn -0.5949 0.6414 0.4845
vn -0.7836 0.6212 -0.0078
vn -0.4408 0.7575 0.4815
vn -0.5399 0.7097 0.4526
vn 0.2616 0.7792 -0.5697
vn 0.8523 0.4659 -0.2379
vn 0.8308 0.5523 -0.0682
vn -0.5915 0.8029 -0.0734
vn -0.3872 -0.5866 -0.7113
vn -0.5567 -0.5527 -0.6201
vn -0.7634 -0.5931 -0.2557
vn -0.7701 -0.6213 -0.1446
vn -0.1607 0.9520 -0.2604
vn -0.3772 0.9232 0.0743
vn -0.4478 0.8941 0.0043
vn -0.2604 0.9608 -0.0951
vn -0.3250 0.9447 0.0446
vn 0.1352 0.9907 -0.0148
vn 0.0818 0.9020 -0.4240
vn 0.0354 -0.7634 -0.6449
vn -0.3442 0.8877 0.3057
vn -0.4015 0.9158 -0.0069
vn 0.4164 0.8399 -0.3482
vn -0.3065 -0.3376 -0.8900
vn -0.5336 -0.6125 -0.5831
vn -0.7275 -0.6244 -0.2844
vn -0.9686 -0.2371 0.0744
vn -0.7093 -0.6693 -0.2212
vn -0.7079 -0.6655 -0.2364
vn -0.9041 -0.1832 0.3860
vn -0.6608 -0.7427 -0.1085
vn -0.1389 -0.2707 0.9526
vn -0.2597 0.8736 0.4115
vn -0.3188 0.8618 0.3946
vn 0.0988 0.9854 -0.1386
vn -0.3526 0.6513 0.6719
vn 0.0310 0.9873 0.1561
vn -0.0019 0.9883 0.1523
vn 0.0869 0.9959 0.0243
vn -0.7280 -0.6850 0.0280
vn -0.7027 -0.6482 0.2933
vn -0.7045 -0.6873 0.1769
vn -0.7976 -0.3360 0.5009
vn -0.5166 -0.5452 -0.6602
vn -0.5870 -0.4430 -0.6776
vn -0.6515 -0.4265 -0.6274
vn -0.6197 -0.7667 -0.1676
vn 0.0606 0.9931 0.1001
vn -0.0602 0.9072 0.4163
vn 0.0518 0.9210 0.3862
vn 0.2821 0.8689 -0.4067
vn -0.0442 0.5050 -0.8620
vn -0.0611 0.5183 -0.8530
vn 0.2351 0.6899 -0.6847
vn -0.3306 0.5017 0.7994
vn -0.5420 -0.5185 0.6613
vn -0.7267 -0.6870 0.0036
vn -0.6006 -0.5549 0.5757
vn -0.8410 -0.5285 0.1159
vn -0.6234 -0.7006 0.3472
vn -0.6633 -0.6356 0.3949
vn -0.4389 -0.3755 0.8163
vn -0.3642 0.2066 0.9081
vn -0.4172 0.6060 -0.6773
vn -0.1138 0.9650 -0.2363
vn -0.3174 0.9248 -0.2100
vn -0.3218 0.9419 -0.0963
vn -0.0988 0.9770 -0.1892
vn -0.1053 0.9944 0.0018
vn -0.2410 0.9628 0.1222
vn -0.2396 0.9604 0.1422
vn -0.7066 -0.2663 -0.6556
vn -0.2368 -0.8009 0.5499
vn -0.0483 -0.6230 0.7807
vn -0.2745 -0.3803 0.8832
vn -0.7136 -0.5231 -0.4660
vn -0.7171 -0.5169 -0.4675
vn -0.4462 -0.4445 0.7767
vn -0.7143 -0.1326 0.6871
vn 0.1601 0.7208 0.6744
vn -0.0256 0.9631 0.2678
vn -0.2052 0.9217 0.3292
vn -0.4508 0.8424 -0.2951
vn -0.0165 0.9594 0.2814
vn -0.0252 0.8310 -0.5558
vn -0.5839 0.6189 -0.5254
vn -0.5199 0.7148 0.4678
vn -0.1943 -0.4832 0.8537
vn -0.8323 -0.5524 0.0461
vn -0.0230 -0.4563 0.8895
vn -0.0576 -0.6074 0.7923
vn -0.0036 -0.6666 0.7454
vn -0.0891 -0.6400 0.7632
vn 0.0008 -0.5789 0.8154
vn -0.5965 -0.0568 0.8006
vn -0.7919 0.5914 -0.1522
vn -0.2477 0.6595 -0.7097
vn -0.6691 0.7431 -0.0113
vn 0.0620 0.5618 0.8249
vn 0.5255 0.7542 -0.3938
vn 0.7834 0.5290 0.3262
vn 0.4532 0.3734 0.8094
vn -0.0901 0.8409 0.5337
vn 0.1970 -0.7921 0.5777
vn 0.0905 -0.7051 0.7034
vn -0.3703 -0.7983 0.4750
vn -0.2607 -0.6884 0.6769
vn -0.2421 -0.7512 0.6141
vn -0.4929 -0.6005 0.6297
vn -0.7216 -0.5738 0.3874
vn -0.5027 -0.0226 0.8642
vn -0.2039 0.8568 0.4736
vn 0.7105 0.6648 0.2307
vn 0.6124 0.6435 0.4592
vn -0.5081 0.7940 -0.3337
vn 0.4756 0.8028 0.3596
vn -0.2277 0.9614 0.1546
vn -0.0114 0.9819 -0.1893
vn 0.3804 0.9155 0.1306
vn -0.7555 -0.6289 0.1835
vn -0.3503 -0.9081 0.2293
vn -0.1432 -0.9405 0.3081
vn 0.3795 -0.5005 0.7781
vn -0.3479 -0.9090 0.2296
vn -0.5736 -0.6171 0.5387
vn 0.5894 -0.4324 0.6824
vn 0.1777 0.0626 0.9821
vn 0.8101 0.5409 0.2261
vn 0.2927 0.9355 0.1982
vn 0.2736 0.8754 0.3986
vn -0.1369 0.9517 0.2748
vn 0.2282 0.9500 0.2131
vn 0.5550 0.7780 0.2943
vn 0.5664 0.7867 0.2454
vn 0.5602 0.7919 0.2428
vn 0.8808 -0.4534 0.1362
vn 0.6211 -0.6785 0.3922
vn 0.3746 -0.8046 0.4608
vn 0.4231 -0.7456 0.5148
vn 0.6393 -0.6693 0.3787
vn 0.7076 -0.4438 0.5498
vn -0.8656 -0.2258 0.4470
vn -0.4227 0.0915 0.9017
vn -0.8538 0.5155 0.0726
vn -0.7497 0.5465 0.3732
vn -0.8691 0.4882 0.0792
vn -0.6736 0.7311 0.1085
vn -0.5323 0.7756 0.3393
vn -0.6170 0.7253 0.3054
vn -0.5757 0.8148 0.0683
vn 0.7754 -0.4775 0.4132
vn 0.8234 -0.5660 0.0420
vn 0.8884 -0.4430 -0.1203
vn 0.9662 -0.2573 0.0146
vn 0.4075 0.9053 -0.1197
vn 0.7711 0.5941 -0.2290
vn 0.2576 0.7388 -0.6228
vn 0.2139 0.7561 -0.6185
vn 0.5982 -0.6798 0.4243
vn -0.2099 -0.4942 0.8436
vn 0.4996 -0.6666 0.5532
vn 0.4831 -0.6746 0.5582
vn -0.2365 -0.4703 0.8502
vn -0.0985 -0.1931 0.9762
vn -0.6200 0.1951 0.7600
vn -0.6576 0.3043 0.6891
vn -0.6038 0.7965 -0.0307
vn -0.1862 0.7944 0.5781
vn -0.5622 0.8203 -0.1046
vn 0.4627 0.5354 -0.7066
vn 0.2560 0.9666 -0.0117
vn 0.0728 0.9816 0.1764
vn -0.1004 0.9940 -0.0441
vn 0.0370 0.9882 -0.1488
vn 0.6432 -0.6459 0.4112
vn 0.7177 -0.6954 -0.0353
vn 0.7435 -0.6576 -0.1219
vn 0.6341 -0.7565 -0.1602
vn 0.3884 -0.6220 0.6799
vn 0.4314 -0.5656 0.7029
vn 0.6687 -0.6336 0.3891
vn 0.8411 -0.4841 0.2411
vn -0.0776 0.9969 0.0127
vn 0.1301 0.9895 0.0621
vn -0.0633 0.9976 -0.0297
vn -0.3972 0.7965 0.4559
vn 0.0004 0.7218 0.6921
vn -0.0514 0.6691 0.7414
vn -0.3991 0.7886 0.4678
vn -0.4814 0.6036 0.6355
vn 0.8626 -0.4896 -0.1270
vn 0.4472 -0.4819 0.7535
vn 0.8666 -0.4988 0.0165
vn 0.7106 -0.7035 -0.0129
vn 0.6709 -0.7319 -0.1192
vn 0.6887 -0.7154 -0.1181
vn 0.6866 -0.6909 -0.2264
vn 0.7227 -0.6540 -0.2235
vn -0.2770 0.8949 -0.3498
vn 0.1969 0.9450 -0.2612
vn -0.2837 0.9156 -0.2849
vn -0.0015 0.7307 -0.6827
vn 0.2695 0.9619 0.0464
vn 0.1444 0.6496 0.7465
vn 0.0048 0.6313 0.7755
vn 0.3917 0.8649 -0.3138
vn 0.4432 -0.5042 -0.7412
vn 0.4819 -0.2730 -0.8326
vn 0.6918 -0.5248 0.4960
vn 0.5468 -0.5320 0.6465
vn 0.5280 -0.8470 0.0608
vn 0.8042 -0.5892 -0.0778
vn 0.2058 0.4262 0.8809
vn 0.1757 0.5705 0.8023
vn 0.2178 0.5447 0.8098
vn 0.3066 0.6589 0.6869
vn -0.2215 0.9214 0.3193
vn 0.5194 -0.7819 -0.3447
vn 0.5613 -0.7785 -0.2808
vn 0.5726 -0.7694 -0.2832
vn -0.1101 -0.2651 -0.9579
vn -0.9347 0.1758 -0.3090
vn -0.1254 0.9920 0.0107
vn 0.2988 0.9528 -0.0539
vn 0.2875 0.9545 -0.0788
vn -0.1080 0.9935 0.0358
vn -0.2687 0.8284 -0.4915
vn -0.5110 -0.1802 -0.8405
vn 0.2617 -0.7062 -0.6579
vn 0.0816 -0.5899 -0.8033
vn 0.0668 -0.6248 -0.7779
vn 0.7724 -0.2282 0.5927
vn 0.8895 -0.2419 0.3877
vn 0.9212 -0.3162 0.2265
vn 0.9352 -0.3177 0.1564
vn 0.6036 0.1830 0.7760
vn 0.2363 0.9605 -0.1471
vn -0.2163 0.9333 0.2866
vn 0.0094 0.7801 0.6255
vn 0.4478 0.8929 0.0480
vn 0.5694 0.7459 0.3455
vn -0.0573 0.8162 0.5750
vn -0.1460 0.8914 0.4291
vn -0.1324 -0.5383 -0.8323
vn 0.3932 -0.5475 -0.7387
vn 0.5763 -0.5522 -0.6025
vn 0.5005 -0.6539 -0.5673
vn 0.5913 -0.5264 -0.6110
vn 0.2423 -0.8151 -0.5263
vn -0.2173 -0.6278 -0.7475
vn -0.6294 -0.5938 -0.5013
vn -0.3155 0.8995 0.3022
vn 0.1500 0.9885 0.0187
vn -0.1356 0.9206 0.3661
vn 0.4928 0.5733 0.6546
vn 0.2526 0.9662 0.0518
vn -0.1409 0.9726 -0.1851
vn -0.2848 0.7889 0.5445
vn 0.6008 0.3373 0.7248
vn -0.5900 -0.2183 -0.7774
vn 0.3637 -0.3011 -0.8815
vn 0.3624 -0.3010 -0.8821
vn 0.5589 -0.7538 -0.3456
vn -0.1344 -0.9162 -0.3774
vn -0.1301 -0.8072 -0.5758
vn 0.3512 0.4944 0.7951
vn -0.7798 0.5510 -0.2973
vn 0.2149 0.5218 0.8255
vn -0.6454 0.5667 0.5123
vn 0.2085 0.8139 -0.5423
vn 0.8687 0.4934 -0.0431
vn -0.1634 0.6950 0.7002
vn -0.4439 0.7145 0.5408
vn -0.4454 0.6264 -0.6398
vn 0.5147 0.7522 -0.4115
vn -0.7136 0.0502 0.6987
s off
f 1//1 21//1 22//1
f 2//2 24//2 26//2
f 1//3 31//3 21//3
f 3//4 32//4 29//4
f 1//5 37//5 31//5
f 4//6 38//6 35//6
f 1//7 42//7 37//7
f 5//8 43//8 41//8
f 1//9 47//9 42//9
f 1//10 53//10 47//10
f 6//11 54//11 51//11
f 1//12 59//12 53//12
f 7//13 60//13 57//13
f 1//14 65//14 59//14
f 8//15 66//15 63//15
f 1//16 71//16 65//16
f 9//17 72//17 69//17
f 1//18 76//18 71//18
f 1//19 82//19 76//19
f 10//20 83//20 80//20
f 1//21 88//21 82//21
f 11//22 89//22 86//22
f 1//23 94//23 88//23
f 12//24 95//24 92//24
f 1//25 100//25 94//25
f 13//26 101//26 98//26
f 1//27 106//27 100//27
f 14//28 107//28 104//28
f 1//29 112//29 106//29
f 15//30 113//30 110//30
f 1//31 118//31 112//31
f 16//32 119//32 116//32
f 1//33 124//33 118//33
f 1//34 128//34 124//34
f 1//35 22//35 128//35
f 18//36 132//36 126//36
f 133//37 2//37 26//37
f 132//38 133//38 134//38
f 133//39 26//39 134//39
f 134//40 26//40 27//40
f 132//41 134//41 126//41
f 126//42 134//42 131//42
f 134//43 27//43 131//43
f 131//44 27//44 19//44
f 23//45 2//45 133//45
f 22//46 23//46 135//46
f 23//47 133//47 135//47
f 135//48 133//48 132//48
f 22//49 135//49 128//49
f 128//50 135//50 127//50
f 135//51 132//51 127//51
f 127//52 132//52 18//52
f 130//53 18//53 126//53
f 129//54 130//54 126//54
f 126//55 131//55 125//55
f 125//56 131//56 19//56
f 127//57 18//57 130//57
f 128//58 127//58 136//58
f 127//59 130//59 136//59
f 136//60 130//60 129//60
f 128//61 136//61 124//61
f 124//62 136//62 123//62
f 136//63 129//63 123//63
f 121//64 125//64 19//64
f 123//65 172//65 124//65
f 124//66 137//66 118//66
f 137//67 173//67 118//67
f 120//68 17//68 122//68
f 119//69 120//69 138//69
f 120//70 122//70 138//70
f 138//71 122//71 121//71
f 119//72 138//72 116//72
f 116//73 138//73 115//73
f 138//74 121//74 115//74
f 115//75 121//75 19//75
f 117//76 171//76 120//76
f 118//77 117//77 139//77
f 117//78 120//78 139//78
f 139//79 120//79 119//79
f 118//80 139//80 112//80
f 112//81 139//81 111//81
f 139//82 119//82 111//82
f 111//83 119//83 16//83
f 114//84 16//84 116//84
f 113//85 114//85 140//85
f 114//86 116//86 140//86
f 140//87 116//87 115//87
f 113//88 140//88 110//88
f 110//89 140//89 109//89
f 140//90 115//90 109//90
f 109//91 115//91 19//91
f 111//92 16//92 114//92
f 112//93 111//93 141//93
f 111//94 114//94 141//94
f 141//95 114//95 113//95
f 112//96 141//96 106//96
f 106//97 141//97 105//97
f 141//98 113//98 105//98
f 105//99 113//99 15//99
f 108//100 15//100 110//100
f 107//101 108//101 142//101
f 108//102 110//102 142//102
f 142//103 110//103 109//103
f 107//104 142//104 104//104
f 104//105 142//105 103//105
f 142//106 109//106 103//106
f 103//107 109//107 19//107
f 105//108 15//108 108//108
f 106//109 105//109 143//109
f 105//110 108//110 143//110
f 143//111 108//111 107//111
f 106//112 143//112 100//112
f 100//113 143//113 99//113
f 143//114 107//114 99//114
f 99//115 107//115 14//115
f 102//116 14//116 104//116
f 101//117 102//117 144//117
f 102//118 104//118 144//118
f 144//119 104//119 103//119
f 101//120 144//120 98//120
f 98//121 144//121 97//121
f 144//122 103//122 97//122
f 97//123 103//123 19//123
f 99//124 14//124 102//124
f 100//125 99//125 145//125
f 99//126 102//126 145//126
f 145//127 102//127 101//127
f 100//128 145//128 94//128
f 94//129 145//129 93//129
f 145//130 101//130 93//130
f 93//131 101//131 13//131
f 96//132 13//132 98//132
f 95//133 96//133 146//133
f 96//134 98//134 146//134
f 146//135 98//135 97//135
f 95//136 146//136 92//136
f 92//137 146//137 91//137
f 146//138 97//138 91//138
f 91//139 97//139 19//139
f 93//140 13//140 96//140
f 94//141 93//141 147//141
f 93//142 96//142 147//142
f 147//143 96//143 95//143
f 94//144 147//144 88//144
f 88//145 147//145 87//145
f 147//146 95//146 87//146
f 87//147 95//147 12//147
f 90//148 12//148 92//148
f 89//149 90//149 148//149
f 90//150 92//150 148//150
f 148//151 92//151 91//151
f 89//152 148//152 86//152
f 86//153 148//153 85//153
f 148//154 91//154 85//154
f 85//155 91//155 19//155
f 87//156 12//156 90//156
f 88//157 87//157 149//157
f 87//158 90//158 149//158
f 149//159 90//159 89//159
f 88//160 149//160 82//160
f 82//161 149//161 81//161
f 149//162 89//162 81//162
f 81//163 89//163 11//163
f 84//164 11//164 86//164
f 83//165 84//165 150//165
f 84//166 86//166 150//166
f 150//167 86//167 85//167
f 83//168 150//168 80//168
f 80//169 150//169 79//169
f 150//170 85//170 79//170
f 79//171 85//171 19//171
f 81//172 11//172 84//172
f 82//173 81//173 151//173
f 81//174 84//174 151//174
f 151//175 84//175 83//175
f 82//176 151//176 76//176
f 76//177 151//177 75//177
f 151//178 83//178 75//178
f 75//179 83//179 10//179
f 78//180 10//180 80//180
f 77//181 78//181 152//181
f 78//182 80//182 152//182
f 152//183 80//183 79//183
f 77//184 152//184 74//184
f 74//185 152//185 73//185
f 152//186 79//186 73//186
f 73//187 79//187 19//187
f 75//188 10//188 78//188
f 76//189 75//189 153//189
f 75//190 78//190 153//190
f 153//191 78//191 77//191
f 76//192 153//192 71//192
f 71//193 153//193 70//193
f 153//194 77//194 70//194
f 72//195 154//195 69//195
f 69//196 154//196 68//196
f 154//197 73//197 68//197
f 68//198 73//198 19//198
f 71//199 155//199 65//199
f 65//200 155//200 64//200
f 155//201 72//201 64//201
f 64//202 72//202 9//202
f 67//203 9//203 69//203
f 66//204 67//204 156//204
f 67//205 69//205 156//205
f 156//206 69//206 68//206
f 66//207 156//207 63//207
f 63//208 156//208 62//208
f 156//209 68//209 62//209
f 62//210 68//210 19//210
f 64//211 9//211 67//211
f 65//212 64//212 157//212
f 64//213 67//213 157//213
f 157//214 67//214 66//214
f 65//215 157//215 59//215
f 59//216 157//216 58//216
f 157//217 66//217 58//217
f 58//218 66//218 8//218
f 61//219 8//219 63//219
f 60//220 61//220 158//220
f 61//221 63//221 158//221
f 158//222 63//222 62//222
f 60//223 158//223 57//223
f 57//224 158//224 56//224
f 158//225 62//225 56//225
f 56//226 62//226 19//226
f 58//227 8//227 61//227
f 59//228 58//228 159//228
f 58//229 61//229 159//229
f 159//230 61//230 60//230
f 59//231 159//231 53//231
f 53//232 159//232 52//232
f 159//233 60//233 52//233
f 52//234 60//234 7//234
f 55//235 7//235 57//235
f 54//236 55//236 160//236
f 55//237 57//237 160//237
f 160//238 57//238 56//238
f 54//239 160//239 51//239
f 51//240 160//240 50//240
f 160//241 56//241 50//241
f 50//242 56//242 19//242
f 52//243 7//243 55//243
f 53//244 52//244 161//244
f 52//245 55//245 161//245
f 161//246 55//246 54//246
f 53//247 161//247 47//247
f 47//248 161//248 46//248
f 161//249 54//249 46//249
f 46//250 54//250 6//250
f 49//251 6//251 51//251
f 48//252 49//252 162//252
f 49//253 51//253 162//253
f 162//254 51//254 50//254
f 162//255 50//255 45//255
f 45//256 50//256 19//256
f 46//257 6//257 49//257
f 47//258 46//258 163//258
f 46//259 49//259 163//259
f 163//260 49//260 48//260
f 47//261 163//261 42//261
f 43//262 44//262 164//262
f 43//263 164//263 41//263
f 41//264 164//264 40//264
f 164//265 45//265 40//265
f 40//266 45//266 19//266
f 165//267 44//267 43//267
f 42//268 165//268 37//268
f 37//269 165//269 36//269
f 165//270 43//270 36//270
f 36//271 43//271 5//271
f 39//272 5//272 41//272
f 38//273 39//273 166//273
f 39//274 41//274 166//274
f 166//275 41//275 40//275
f 38//276 166//276 35//276
f 35//277 166//277 34//277
f 166//278 40//278 34//278
f 34//279 40//279 19//279
f 36//280 5//280 39//280
f 37//281 36//281 167//281
f 36//282 39//282 167//282
f 167//283 39//283 38//283
f 37//284 167//284 31//284
f 31//285 167//285 30//285
f 167//286 38//286 30//286
f 30//287 38//287 4//287
f 33//288 4//288 35//288
f 32//289 33//289 168//289
f 33//290 35//290 168//290
f 168//291 35//291 34//291
f 32//292 168//292 29//292
f 29//293 168//293 28//293
f 168//294 34//294 28//294
f 28//295 34//295 19//295
f 30//296 4//296 33//296
f 31//297 30//297 169//297
f 30//298 33//298 169//298
f 169//299 33//299 32//299
f 31//300 169//300 21//300
f 21//301 169//301 20//301
f 169//302 32//302 20//302
f 20//303 32//303 3//303
f 25//304 3//304 29//304
f 24//305 25//305 26//305
f 25//306 29//306 26//306
f 26//307 29//307 28//307
f 26//308 28//308 27//308
f 27//309 28//309 19//309
f 20//310 3//310 25//310
f 21//311 20//311 170//311
f 20//312 25//312 170//312
f 170//313 25//313 24//313
f 21//314 170//314 22//314
f 22//315 170//315 23//315
f 170//316 24//316 23//316
f 23//317 24//317 2//317
f 120//318 171//318 17//318
f 118//319 173//319 117//319
f 124//320 172//320 137//320
